<svg width="296" height="69" viewBox="0 0 296 69" fill="none" xmlns="http://www.w3.org/2000/svg">
<path d="M34.5 69C46.0278 69 56.235 63.3461 62.5 54.66C68.765 63.3461 78.9722 69 90.5 69C102.663 69 113.357 62.7054 119.5 53.1959C125.643 62.7054 136.337 69 148.5 69C167.554 69 183 53.5538 183 34.5C183 15.4462 167.554 0 148.5 0C136.337 0 125.643 6.29465 119.5 15.8041C113.357 6.29465 102.663 0 90.5 0C78.9722 0 68.765 5.6539 62.5 14.34C56.235 5.6539 46.0278 0 34.5 0C15.4462 0 0 15.4462 0 34.5C0 53.5538 15.4462 69 34.5 69Z" fill="white"/>
<path d="M96.624 38.266L104.415 53H97.525L90.741 39.22H84.752V53H78.71V16.748H91.059C99.6097 16.748 103.885 20.5287 103.885 28.09C103.885 30.6693 103.214 32.86 101.871 34.662C100.564 36.4287 98.8147 37.63 96.624 38.266ZM84.752 21.836V34.291H91.483C93.3557 34.291 94.8573 33.7257 95.988 32.595C97.154 31.429 97.737 29.9273 97.737 28.09C97.737 23.9207 95.511 21.836 91.059 21.836H84.752Z" fill="#444444"/>
<path d="M148.543 53.477C143.738 53.477 139.957 51.834 137.201 48.548C134.48 45.262 133.12 40.5097 133.12 34.291C133.12 28.461 134.516 23.9913 137.307 20.882C140.134 17.7373 143.879 16.165 148.543 16.165C152.465 16.165 155.68 17.331 158.189 19.663C160.733 21.9597 162.005 25.0337 162.005 28.885H156.228C156.087 26.5883 155.327 24.7687 153.949 23.426C152.606 22.048 150.804 21.359 148.543 21.359C142.36 21.359 139.268 25.6697 139.268 34.291C139.268 43.619 142.36 48.283 148.543 48.283C150.804 48.283 152.606 47.6293 153.949 46.322C155.327 44.9793 156.087 43.142 156.228 40.81H162.005C162.005 44.6967 160.733 47.7883 158.189 50.085C155.716 52.3463 152.5 53.477 148.543 53.477Z" fill="#444444"/>
<path d="M35.08 39.273V34.026H48.595V39.485C48.595 43.8663 47.2347 47.3113 44.514 49.82C41.8287 52.258 38.313 53.477 33.967 53.477C29.091 53.477 25.2397 51.8517 22.413 48.601C19.6217 45.3503 18.226 40.8453 18.226 35.086C18.226 28.7967 19.763 24.0797 22.837 20.935C25.9463 17.755 29.939 16.165 34.815 16.165C38.525 16.165 41.7227 17.331 44.408 19.663C47.1287 21.995 48.489 25.069 48.489 28.885H42.712C42.5707 26.5883 41.7757 24.7687 40.327 23.426C38.9137 22.048 37.041 21.359 34.709 21.359C31.4937 21.359 28.9673 22.4543 27.13 24.645C25.2927 26.8003 24.374 30.104 24.374 34.556C24.374 39.0433 25.169 42.453 26.759 44.785C28.3843 47.117 30.7693 48.283 33.914 48.283C36.6347 48.283 38.7547 47.5587 40.274 46.11C41.7933 44.6613 42.553 42.6297 42.553 40.015V39.273H35.08Z" fill="#444444"/>
<path d="M40 28H52V33H40V28Z" fill="white"/>
<path d="M199.44 16.1417V14.4587H203.775V16.2097C203.775 17.615 203.339 18.72 202.466 19.5247C201.605 20.3067 200.477 20.6977 199.083 20.6977C197.519 20.6977 196.284 20.1764 195.377 19.1337C194.482 18.091 194.034 16.646 194.034 14.7987C194.034 12.7814 194.527 11.2684 195.513 10.2597C196.51 9.23969 197.791 8.72969 199.355 8.72969C200.545 8.72969 201.571 9.10369 202.432 9.85169C203.305 10.5997 203.741 11.5857 203.741 12.8097H201.888C201.843 12.073 201.588 11.4894 201.123 11.0587C200.67 10.6167 200.069 10.3957 199.321 10.3957C198.29 10.3957 197.479 10.747 196.89 11.4497C196.301 12.141 196.006 13.2007 196.006 14.6287C196.006 16.068 196.261 17.1617 196.771 17.9097C197.292 18.6577 198.057 19.0317 199.066 19.0317C199.939 19.0317 200.619 18.7994 201.106 18.3347C201.593 17.87 201.837 17.2184 201.837 16.3797V16.1417H199.44Z" fill="white"/>
<path d="M208.298 20.6977C207.414 20.6977 206.688 20.4484 206.122 19.9497C205.578 19.4397 205.306 18.7994 205.306 18.0287C205.306 17.2694 205.595 16.6744 206.173 16.2437C206.762 15.8017 207.589 15.5807 208.655 15.5807H210.78V14.8667C210.78 14.3567 210.632 13.96 210.338 13.6767C210.054 13.3934 209.635 13.2517 209.08 13.2517C208.513 13.2517 208.071 13.382 207.754 13.6427C207.448 13.9034 207.295 14.249 207.295 14.6797H205.595C205.595 13.841 205.901 13.161 206.513 12.6397C207.125 12.107 207.986 11.8407 209.097 11.8407C210.23 11.8407 211.103 12.1127 211.715 12.6567C212.338 13.1894 212.65 13.9714 212.65 15.0027V18.1307C212.65 18.6067 212.684 18.924 212.752 19.0827C212.831 19.23 212.99 19.315 213.228 19.3377H213.466V20.4937C213.318 20.573 213.018 20.6127 212.565 20.6127C211.579 20.6127 211.046 20.1027 210.967 19.0827C210.797 19.5247 210.462 19.9044 209.964 20.2217C209.476 20.539 208.921 20.6977 208.298 20.6977ZM208.536 19.2867C209.216 19.2867 209.76 19.0714 210.168 18.6407C210.576 18.1987 210.78 17.632 210.78 16.9407V16.7707H208.655C207.646 16.7707 207.142 17.1957 207.142 18.0457C207.142 18.873 207.606 19.2867 208.536 19.2867Z" fill="white"/>
<path d="M217.406 20.6467C216.749 20.6467 216.25 20.4654 215.91 20.1027C215.582 19.74 215.417 19.1507 215.417 18.3347V8.30469H217.287V18.3177C217.287 18.7597 217.338 19.0487 217.44 19.1847C217.542 19.3094 217.758 19.3717 218.086 19.3717C218.336 19.3717 218.483 19.366 218.528 19.3547V20.5107C218.222 20.6014 217.848 20.6467 217.406 20.6467Z" fill="white"/>
<path d="M222.741 20.6977C221.857 20.6977 221.132 20.4484 220.565 19.9497C220.021 19.4397 219.749 18.7994 219.749 18.0287C219.749 17.2694 220.038 16.6744 220.616 16.2437C221.205 15.8017 222.033 15.5807 223.098 15.5807H225.223V14.8667C225.223 14.3567 225.076 13.96 224.781 13.6767C224.498 13.3934 224.078 13.2517 223.523 13.2517C222.956 13.2517 222.514 13.382 222.197 13.6427C221.891 13.9034 221.738 14.249 221.738 14.6797H220.038C220.038 13.841 220.344 13.161 220.956 12.6397C221.568 12.107 222.429 11.8407 223.54 11.8407C224.673 11.8407 225.546 12.1127 226.158 12.6567C226.781 13.1894 227.093 13.9714 227.093 15.0027V18.1307C227.093 18.6067 227.127 18.924 227.195 19.0827C227.274 19.23 227.433 19.315 227.671 19.3377H227.909V20.4937C227.762 20.573 227.461 20.6127 227.008 20.6127C226.022 20.6127 225.489 20.1027 225.41 19.0827C225.24 19.5247 224.906 19.9044 224.407 20.2217C223.92 20.539 223.364 20.6977 222.741 20.6977ZM222.979 19.2867C223.659 19.2867 224.203 19.0714 224.611 18.6407C225.019 18.1987 225.223 17.632 225.223 16.9407V16.7707H223.098C222.089 16.7707 221.585 17.1957 221.585 18.0457C221.585 18.873 222.05 19.2867 222.979 19.2867Z" fill="white"/>
<path d="M230.762 20.5447H228.671L231.561 16.2097L228.892 12.0447H230.983L232.666 14.9517L234.349 12.0447H236.44L233.771 16.2097L236.661 20.5447H234.57L232.666 17.5187L230.762 20.5447Z" fill="white"/>
<path d="M239.245 10.7187C238.916 10.7187 238.644 10.611 238.429 10.3957C238.225 10.169 238.123 9.89135 238.123 9.56269C238.123 9.22269 238.225 8.94502 238.429 8.72969C238.633 8.50302 238.905 8.38969 239.245 8.38969C239.585 8.38969 239.857 8.50302 240.061 8.72969C240.253 8.97902 240.355 9.25669 240.367 9.56269C240.378 9.86869 240.276 10.1464 240.061 10.3957C239.845 10.645 239.573 10.7527 239.245 10.7187ZM240.18 20.5447H238.31V12.0447H240.18V20.5447Z" fill="white"/>
<path d="M245.253 20.6977C244.369 20.6977 243.643 20.4484 243.077 19.9497C242.533 19.4397 242.261 18.7994 242.261 18.0287C242.261 17.2694 242.55 16.6744 243.128 16.2437C243.717 15.8017 244.544 15.5807 245.61 15.5807H247.735V14.8667C247.735 14.3567 247.587 13.96 247.293 13.6767C247.009 13.3934 246.59 13.2517 246.035 13.2517C245.468 13.2517 245.026 13.382 244.709 13.6427C244.403 13.9034 244.25 14.249 244.25 14.6797H242.55C242.55 13.841 242.856 13.161 243.468 12.6397C244.08 12.107 244.941 11.8407 246.052 11.8407C247.185 11.8407 248.058 12.1127 248.67 12.6567C249.293 13.1894 249.605 13.9714 249.605 15.0027V18.1307C249.605 18.6067 249.639 18.924 249.707 19.0827C249.786 19.23 249.945 19.315 250.183 19.3377H250.421V20.4937C250.273 20.573 249.973 20.6127 249.52 20.6127C248.534 20.6127 248.001 20.1027 247.922 19.0827C247.752 19.5247 247.417 19.9044 246.919 20.2217C246.431 20.539 245.876 20.6977 245.253 20.6977ZM245.491 19.2867C246.171 19.2867 246.715 19.0714 247.123 18.6407C247.531 18.1987 247.735 17.632 247.735 16.9407V16.7707H245.61C244.601 16.7707 244.097 17.1957 244.097 18.0457C244.097 18.873 244.561 19.2867 245.491 19.2867Z" fill="white"/>
<path d="M200.256 35.8187L202.755 40.5447H200.545L198.369 36.1247H196.448V40.5447H194.51V28.9167H198.471C201.214 28.9167 202.585 30.1294 202.585 32.5547C202.585 33.382 202.37 34.0847 201.939 34.6627C201.52 35.2294 200.959 35.6147 200.256 35.8187ZM196.448 30.5487V34.5437H198.607C199.208 34.5437 199.689 34.3624 200.052 33.9997C200.426 33.6257 200.613 33.144 200.613 32.5547C200.613 31.2174 199.899 30.5487 198.471 30.5487H196.448Z" fill="white"/>
<path d="M208.139 40.6977C206.87 40.6977 205.878 40.318 205.164 39.5587C204.462 38.7994 204.11 37.6944 204.11 36.2437C204.11 34.8384 204.473 33.756 205.198 32.9967C205.935 32.226 206.938 31.8407 208.207 31.8407C209.352 31.8407 210.247 32.175 210.893 32.8437C211.539 33.5124 211.862 34.4134 211.862 35.5467C211.862 35.8754 211.823 36.238 211.743 36.6347H205.946C205.946 38.4027 206.683 39.2867 208.156 39.2867C208.712 39.2867 209.159 39.1734 209.499 38.9467C209.851 38.72 210.026 38.3687 210.026 37.8927H211.76C211.76 38.822 211.409 39.5247 210.706 40.0007C210.004 40.4654 209.148 40.6977 208.139 40.6977ZM205.963 35.3087H210.026C209.992 34.606 209.822 34.0904 209.516 33.7617C209.222 33.4217 208.768 33.2517 208.156 33.2517C206.842 33.2517 206.111 33.9374 205.963 35.3087Z" fill="white"/>
<path d="M216.676 40.6977C215.542 40.6977 214.675 40.4654 214.075 40.0007C213.474 39.536 213.174 38.8787 213.174 38.0287H214.976C215.044 38.482 215.214 38.7994 215.486 38.9807C215.758 39.1507 216.166 39.2357 216.71 39.2357C217.197 39.2357 217.565 39.1337 217.815 38.9297C218.075 38.7144 218.206 38.4254 218.206 38.0627C218.206 37.7454 218.081 37.496 217.832 37.3147C217.582 37.1334 217.186 36.969 216.642 36.8217L216.115 36.6857L215.537 36.5327C215.027 36.374 214.675 36.2437 214.483 36.1417C214.097 35.9037 213.842 35.677 213.718 35.4617C213.514 35.099 213.412 34.725 213.412 34.3397C213.412 33.5577 213.718 32.9457 214.33 32.5037C214.942 32.0617 215.695 31.8407 216.591 31.8407C217.157 31.8407 217.673 31.9087 218.138 32.0447C218.648 32.192 219.073 32.4697 219.413 32.8777C219.753 33.2857 219.923 33.7844 219.923 34.3737H218.206C218.16 33.977 218.007 33.6994 217.747 33.5407C217.497 33.382 217.095 33.3027 216.54 33.3027C215.701 33.3027 215.282 33.637 215.282 34.3057C215.282 34.589 215.406 34.8044 215.656 34.9517C215.905 35.099 216.336 35.252 216.948 35.4107C218.013 35.7054 218.721 35.966 219.073 36.1927C219.741 36.6234 220.076 37.2467 220.076 38.0627C220.076 38.8787 219.77 39.5247 219.158 40.0007C218.557 40.4654 217.73 40.6977 216.676 40.6977Z" fill="white"/>
<path d="M225.422 40.6977C224.152 40.6977 223.161 40.318 222.447 39.5587C221.744 38.7994 221.393 37.6944 221.393 36.2437C221.393 34.8384 221.755 33.756 222.481 32.9967C223.217 32.226 224.22 31.8407 225.49 31.8407C226.634 31.8407 227.53 32.175 228.176 32.8437C228.822 33.5124 229.145 34.4134 229.145 35.5467C229.145 35.8754 229.105 36.238 229.026 36.6347H223.229C223.229 38.4027 223.965 39.2867 225.439 39.2867C225.994 39.2867 226.442 39.1734 226.782 38.9467C227.133 38.72 227.309 38.3687 227.309 37.8927H229.043C229.043 38.822 228.691 39.5247 227.989 40.0007C227.286 40.4654 226.43 40.6977 225.422 40.6977ZM223.246 35.3087H227.309C227.275 34.606 227.105 34.0904 226.799 33.7617C226.504 33.4217 226.051 33.2517 225.439 33.2517C224.124 33.2517 223.393 33.9374 223.246 35.3087Z" fill="white"/>
<path d="M233.499 40.6977C232.615 40.6977 231.89 40.4484 231.323 39.9497C230.779 39.4397 230.507 38.7994 230.507 38.0287C230.507 37.2694 230.796 36.6744 231.374 36.2437C231.963 35.8017 232.791 35.5807 233.856 35.5807H235.981V34.8667C235.981 34.3567 235.834 33.96 235.539 33.6767C235.256 33.3934 234.836 33.2517 234.281 33.2517C233.714 33.2517 233.272 33.382 232.955 33.6427C232.649 33.9034 232.496 34.249 232.496 34.6797H230.796C230.796 33.841 231.102 33.161 231.714 32.6397C232.326 32.107 233.187 31.8407 234.298 31.8407C235.431 31.8407 236.304 32.1127 236.916 32.6567C237.539 33.1894 237.851 33.9714 237.851 35.0027V38.1307C237.851 38.6067 237.885 38.924 237.953 39.0827C238.032 39.23 238.191 39.315 238.429 39.3377H238.667V40.4937C238.52 40.573 238.219 40.6127 237.766 40.6127C236.78 40.6127 236.247 40.1027 236.168 39.0827C235.998 39.5247 235.664 39.9044 235.165 40.2217C234.678 40.539 234.122 40.6977 233.499 40.6977ZM233.737 39.2867C234.417 39.2867 234.961 39.0714 235.369 38.6407C235.777 38.1987 235.981 37.632 235.981 36.9407V36.7707H233.856C232.847 36.7707 232.343 37.1957 232.343 38.0457C232.343 38.873 232.808 39.2867 233.737 39.2867Z" fill="white"/>
<path d="M242.54 40.5447H240.67V32.0447H242.387L242.472 33.4047H242.506C242.982 32.43 243.718 31.9427 244.716 31.9427C244.988 31.9427 245.254 31.971 245.515 32.0277V33.6257C245.277 33.5804 244.954 33.5577 244.546 33.5577C243.934 33.5577 243.446 33.79 243.084 34.2547C242.721 34.7194 242.54 35.3597 242.54 36.1757V40.5447Z" fill="white"/>
<path d="M250.193 40.6977C247.507 40.6977 246.164 39.2187 246.164 36.2607C246.164 34.8214 246.515 33.7277 247.218 32.9797C247.921 32.2204 248.918 31.8407 250.21 31.8407C251.241 31.8407 252.069 32.107 252.692 32.6397C253.315 33.161 253.627 33.875 253.627 34.7817H251.893C251.893 34.3057 251.746 33.9317 251.451 33.6597C251.168 33.3877 250.754 33.2517 250.21 33.2517C249.451 33.2517 248.895 33.484 248.544 33.9487C248.204 34.4134 248.034 35.184 248.034 36.2607C248.034 37.292 248.193 38.057 248.51 38.5557C248.839 39.043 249.4 39.2867 250.193 39.2867C250.737 39.2867 251.156 39.1507 251.451 38.8787C251.746 38.6067 251.893 38.2497 251.893 37.8077H253.627C253.627 38.669 253.315 39.366 252.692 39.8987C252.069 40.4314 251.236 40.6977 250.193 40.6977Z" fill="white"/>
<path d="M257.597 40.5447H255.727V28.3047H257.597V32.9797C257.812 32.6624 258.13 32.396 258.549 32.1807C258.98 31.954 259.439 31.8407 259.926 31.8407C260.946 31.8407 261.734 32.124 262.289 32.6907C262.856 33.2574 263.139 34.0394 263.139 35.0367V40.5447H261.269V35.0537C261.269 33.8977 260.691 33.3197 259.535 33.3197C258.946 33.3197 258.475 33.4784 258.124 33.7957C257.773 34.1017 257.597 34.521 257.597 35.0537V40.5447Z" fill="white"/>
<path d="M198.947 60.6977C197.406 60.6977 196.193 60.1707 195.309 59.1167C194.436 58.0627 194 56.5384 194 54.5437C194 52.6737 194.448 51.24 195.343 50.2427C196.25 49.234 197.451 48.7297 198.947 48.7297C200.205 48.7297 201.236 49.1037 202.041 49.8517C202.857 50.5884 203.265 51.5744 203.265 52.8097H201.412C201.367 52.073 201.123 51.4894 200.681 51.0587C200.25 50.6167 199.672 50.3957 198.947 50.3957C196.964 50.3957 195.972 51.7784 195.972 54.5437C195.972 57.5357 196.964 59.0317 198.947 59.0317C199.672 59.0317 200.25 58.822 200.681 58.4027C201.123 57.972 201.367 57.3827 201.412 56.6347H203.265C203.265 57.8814 202.857 58.873 202.041 59.6097C201.248 60.335 200.216 60.6977 198.947 60.6977Z" fill="white"/>
<path d="M204.542 56.2777C204.542 54.8837 204.916 53.8014 205.664 53.0307C206.435 52.26 207.409 51.8747 208.588 51.8747C209.778 51.8747 210.747 52.26 211.495 53.0307C212.254 53.79 212.634 54.8724 212.634 56.2777C212.634 57.7057 212.254 58.7994 211.495 59.5587C210.747 60.318 209.778 60.6977 208.588 60.6977C207.398 60.6977 206.423 60.318 205.664 59.5587C204.916 58.788 204.542 57.6944 204.542 56.2777ZM210.798 56.2777C210.798 55.2917 210.605 54.5494 210.22 54.0507C209.846 53.552 209.302 53.3027 208.588 53.3027C207.874 53.3027 207.324 53.552 206.939 54.0507C206.565 54.5494 206.378 55.2917 206.378 56.2777C206.378 58.2724 207.115 59.2697 208.588 59.2697C210.061 59.2697 210.798 58.2724 210.798 56.2777Z" fill="white"/>
<path d="M216.453 60.5447H214.583V52.0447H216.181L216.402 53.1497C217.003 52.277 217.864 51.8407 218.986 51.8407C220.981 51.8407 221.978 52.8267 221.978 54.7987V60.5447H220.108V54.8837C220.108 54.3397 219.978 53.943 219.717 53.6937C219.457 53.433 219.037 53.3027 218.459 53.3027C217.904 53.3027 217.428 53.5067 217.031 53.9147C216.646 54.3 216.453 54.7307 216.453 55.2067V60.5447Z" fill="white"/>
<path d="M227.384 60.6977C226.25 60.6977 225.383 60.4654 224.783 60.0007C224.182 59.536 223.882 58.8787 223.882 58.0287H225.684C225.752 58.482 225.922 58.7994 226.194 58.9807C226.466 59.1507 226.874 59.2357 227.418 59.2357C227.905 59.2357 228.273 59.1337 228.523 58.9297C228.783 58.7144 228.914 58.4254 228.914 58.0627C228.914 57.7454 228.789 57.496 228.54 57.3147C228.29 57.1334 227.894 56.969 227.35 56.8217L226.823 56.6857L226.245 56.5327C225.735 56.374 225.383 56.2437 225.191 56.1417C224.805 55.9037 224.55 55.677 224.426 55.4617C224.222 55.099 224.12 54.725 224.12 54.3397C224.12 53.5577 224.426 52.9457 225.038 52.5037C225.65 52.0617 226.403 51.8407 227.299 51.8407C227.865 51.8407 228.381 51.9087 228.846 52.0447C229.356 52.192 229.781 52.4697 230.121 52.8777C230.461 53.2857 230.631 53.7844 230.631 54.3737H228.914C228.868 53.977 228.715 53.6994 228.455 53.5407C228.205 53.382 227.803 53.3027 227.248 53.3027C226.409 53.3027 225.99 53.637 225.99 54.3057C225.99 54.589 226.114 54.8044 226.364 54.9517C226.613 55.099 227.044 55.252 227.656 55.4107C228.721 55.7054 229.429 55.966 229.781 56.1927C230.449 56.6234 230.784 57.2467 230.784 58.0627C230.784 58.8787 230.478 59.5247 229.866 60.0007C229.265 60.4654 228.438 60.6977 227.384 60.6977Z" fill="white"/>
<path d="M232.101 56.2777C232.101 54.8837 232.475 53.8014 233.223 53.0307C233.993 52.26 234.968 51.8747 236.147 51.8747C237.337 51.8747 238.306 52.26 239.054 53.0307C239.813 53.79 240.193 54.8724 240.193 56.2777C240.193 57.7057 239.813 58.7994 239.054 59.5587C238.306 60.318 237.337 60.6977 236.147 60.6977C234.957 60.6977 233.982 60.318 233.223 59.5587C232.475 58.788 232.101 57.6944 232.101 56.2777ZM238.357 56.2777C238.357 55.2917 238.164 54.5494 237.779 54.0507C237.405 53.552 236.861 53.3027 236.147 53.3027C235.433 53.3027 234.883 53.552 234.498 54.0507C234.124 54.5494 233.937 55.2917 233.937 56.2777C233.937 58.2724 234.673 59.2697 236.147 59.2697C237.62 59.2697 238.357 58.2724 238.357 56.2777Z" fill="white"/>
<path d="M244.233 60.5447H242.363V52.0447H244.08L244.165 53.4047H244.199C244.675 52.43 245.412 51.9427 246.409 51.9427C246.681 51.9427 246.947 51.971 247.208 52.0277V53.6257C246.97 53.5804 246.647 53.5577 246.239 53.5577C245.627 53.5577 245.14 53.79 244.777 54.2547C244.414 54.7194 244.233 55.3597 244.233 56.1757V60.5447Z" fill="white"/>
<path d="M251.827 60.6807C250.082 60.6807 249.209 59.8987 249.209 58.3347V53.3367H247.747V52.0447H249.243V49.6647H251.079V52.0447H253.476V53.3367H251.079V58.2667C251.079 58.9467 251.368 59.2867 251.946 59.2867C252.626 59.2867 253.182 59.213 253.612 59.0657V60.4087C253.034 60.59 252.439 60.6807 251.827 60.6807Z" fill="white"/>
<path d="M256.494 50.7187C256.165 50.7187 255.893 50.611 255.678 50.3957C255.474 50.169 255.372 49.8914 255.372 49.5627C255.372 49.2227 255.474 48.945 255.678 48.7297C255.882 48.503 256.154 48.3897 256.494 48.3897C256.834 48.3897 257.106 48.503 257.31 48.7297C257.502 48.979 257.604 49.2567 257.616 49.5627C257.627 49.8687 257.525 50.1464 257.31 50.3957C257.094 50.645 256.822 50.7527 256.494 50.7187ZM257.429 60.5447H255.559V52.0447H257.429V60.5447Z" fill="white"/>
<path d="M263.182 60.6977C262.218 60.6977 261.476 60.4484 260.955 59.9497C260.445 59.451 260.19 58.7314 260.19 57.7907V52.0447H262.06V57.6887C262.06 58.72 262.575 59.2357 263.607 59.2357C264.196 59.2357 264.678 59.0827 265.052 58.7767C265.437 58.4707 265.658 58.0684 265.715 57.5697V52.0447H267.585V60.5447H266.106L265.817 59.4227C265.624 59.672 265.454 59.876 265.307 60.0347C265.148 60.1934 264.87 60.3464 264.474 60.4937C264.088 60.6297 263.658 60.6977 263.182 60.6977Z" fill="white"/>
<path d="M272.002 60.5447H270.132V52.0447H271.662L271.917 53.0137C272.495 52.2317 273.328 51.8407 274.416 51.8407C275.606 51.8407 276.405 52.311 276.813 53.2517C277.391 52.311 278.298 51.8407 279.533 51.8407C280.474 51.8407 281.21 52.107 281.743 52.6397C282.276 53.161 282.542 53.8694 282.542 54.7647V60.5447H280.672V54.8497C280.672 53.8184 280.173 53.3027 279.176 53.3027C278.689 53.3027 278.269 53.467 277.918 53.7957C277.578 54.1244 277.408 54.5154 277.408 54.9687V60.5447H275.538V54.7477C275.538 53.7844 275.005 53.3027 273.94 53.3027C273.373 53.3027 272.909 53.4784 272.546 53.8297C272.183 54.1697 272.002 54.572 272.002 55.0367V60.5447Z" fill="white"/>
<path d="M287.657 54.7817H286.382V50.0557H284.699V48.9167H289.272V50.0557H287.657V54.7817ZM291.193 54.7817H289.935V48.9167H291.227L292.978 51.3817L294.712 48.9167H295.987V54.7817H294.729V50.7187L293.403 52.5887H292.536L291.193 50.7187V54.7817Z" fill="white"/>
</svg>
